<?xml version="1.0" standalone="no"?>
<!DOCTYPE svg PUBLIC "-//W3C//DTD SVG 20010904//EN"
 "http://www.w3.org/TR/2001/REC-SVG-20010904/DTD/svg10.dtd">
<svg version="1.0" xmlns="http://www.w3.org/2000/svg"
 width="500.000000pt" height="500.000000pt" viewBox="0 0 500.000000 500.000000"
 preserveAspectRatio="xMidYMid meet">
<metadata>
Created by potrace 1.14, written by Peter Selinger 2001-2017
</metadata>
<g transform="translate(0.000000,500.000000) scale(0.100000,-0.100000)"
fill="#000000" stroke="none">
<path d="M2328 4659 c-76 -12 -158 -38 -238 -76 -138 -66 -266 -220 -345 -415
-97 -238 -111 -442 -49 -738 17 -85 70 -266 84 -292 6 -10 10 -24 10 -31 0
-31 165 -414 262 -612 l45 -90 -100 -165 c-214 -354 -491 -758 -874 -1277
-106 -144 -193 -263 -193 -265 0 -2 42 -5 93 -7 50 -2 119 -5 152 -6 33 -2 83
-4 111 -4 l51 -1 15 -57 c9 -32 35 -127 58 -211 l42 -152 53 77 c56 82 74 108
241 348 57 83 110 158 117 169 6 10 24 35 39 56 60 84 352 525 447 675 56 88
106 164 110 168 4 4 25 -21 46 -55 125 -205 471 -720 769 -1148 92 -132 177
-255 186 -270 5 -8 11 -13 14 -10 6 6 84 283 98 350 6 25 13 48 17 52 5 6 100
11 339 19 34 1 62 6 62 10 0 7 -189 268 -237 329 -34 42 -273 375 -370 515
-159 230 -345 515 -457 702 l-97 161 25 49 c200 392 355 805 391 1043 2 14 7
45 12 70 9 57 9 293 -1 345 -20 109 -67 257 -106 335 -73 144 -227 303 -335
344 -35 13 -179 53 -220 61 -55 11 -210 13 -267 4z m242 -543 c36 -4 100 -17
143 -28 l79 -21 -7 -51 c-26 -194 -132 -518 -258 -787 -24 -53 -48 -106 -52
-119 -7 -22 -12 -16 -45 51 -49 96 -143 325 -187 454 -64 188 -119 438 -99
453 17 14 134 41 207 48 35 3 65 7 66 8 4 4 87 -1 153 -8z"/>
</g>
</svg>
